# xmcd CD database file
# Copyright (C) 1993-1998 Ti Kan
# 
# Track frame offsets:
#     150
#     19055
#     31945
#     45652
#     60827
#     77815
#     92422
#     104772
#     124995
#     136075
#     148887
# 
# Disc length: 2307 seconds
# 
# Revision: 1
# Processed by: cddbd v1.4b41PL1 Copyright (c) Steve Scherf et al.
# Submitted via: DiscPlay 4.0.4
# 
DISCID=8e09010b
DTITLE=Sue Foley - Young Girl Blues
DYEAR=1900
DGENRE=
TTITLE0=Queen Bee
TTITLE1=(Me and My) Chauffeur Blues
TTITLE2=Cuban Getaway
TTITLE3=Mean Old Lonesome Train
TTITLE4=Gone Blind
TTITLE5=Walkin' Home
TTITLE6=But I Forgive You
TTITLE7=Off The Hook
TTITLE8=Little Mixed Up
TTITLE9=Hooked On Love
TTITLE10=Time To Travel
EXTD=
EXTT0=
EXTT1=
EXTT2=
EXTT3=
EXTT4=
EXTT5=
EXTT6=
EXTT7=
EXTT8=
EXTT9=
EXTT10=
PLAYORDER=
